

  <svg
            
            version="1.0" xmlns="http://www.w3.org/2000/svg"
            width="300pt" height="300pt" viewBox="0 0 300 300"
            preserveAspectRatio="xMidYMid meet">

            <g transform="translate(0.000000,300.000000) scale(0.100000,-0.100000)"
                fill="#c1e30a" stroke="none">
                <path fill="#2ce52c" d="M1150 2947 c-167 -57 -274 -163 -338 -336 -21 -56 -25 -89 -30 -218
l-5 -153 -298 0 c-171 0 -309 -4 -324 -10 -14 -5 -29 -20 -34 -33 -8 -21 85
-1641 104 -1817 14 -136 106 -251 238 -302 48 -19 86 -21 452 -28 220 -4 580
-4 800 0 378 7 403 9 458 30 110 42 190 126 222 232 10 35 32 333 71 966 l57
915 -27 24 -27 23 -310 0 -309 0 0 130 c0 71 -5 153 -11 182 -39 189 -194 354
-380 403 -84 23 -231 19 -309 -8z m291 -214 c68 -30 128 -89 161 -158 27 -57
28 -67 28 -197 l0 -138 -315 0 -315 0 0 123 c0 140 12 192 59 260 83 121 249
168 382 110z m118 -1054 c100 -21 133 -109 67 -175 -38 -38 -43 -39 -177 -22
-84 10 -105 9 -165 -5 -37 -10 -85 -29 -104 -42 -50 -35 -84 -98 -84 -156 0
-84 61 -144 191 -190 72 -26 113 -58 113 -88 0 -20 0 -20 -32 -1 -18 10 -67
31 -108 46 -151 54 -239 115 -283 199 -31 58 -31 173 1 237 45 91 137 161 255
193 63 17 256 19 326 4z m-162 -425 c226 -85 303 -167 303 -323 0 -148 -84
-254 -245 -312 -83 -29 -289 -37 -395 -15 -60 12 -81 22 -102 46 -50 55 -27
135 47 166 27 11 42 11 96 -3 35 -8 109 -16 164 -16 92 -1 105 1 167 30 82 39
119 87 126 167 8 95 -36 145 -178 206 -106 45 -130 63 -130 97 l0 23 42 -21
c23 -12 70 -32 105 -45z"/>
              
            </g>
        </svg>